<?xml version="1.0" ?><svg height="60px" version="1.1" viewBox="0 0 60 60" width="60px" xmlns="http://www.w3.org/2000/svg" xmlns:sketch="http://www.bohemiancoding.com/sketch/ns" xmlns:xlink="http://www.w3.org/1999/xlink"><title/><desc/><defs/><g fill="none" fill-rule="evenodd" id="soical" stroke="none" stroke-width="1"><g id="social" transform="translate(-473.000000, -138.000000)"><g id="slices" transform="translate(173.000000, 138.000000)"/><g fill="#CA4738" id="hexagon-flat" transform="translate(173.000000, 138.000000)"><polygon id="Polygon-3" points="330 0 355.980762 15 355.980762 45 330 60 304.019238 45 304.019238 15 "/></g><g fill="#000000" fill-opacity="0.4" id="hexagon-gloss" transform="translate(177.000000, 153.000000)"><polygon id="Polygon-3" points="351.980762 0 351.980762 30 326 45 300.019238 30 "/></g><g fill="#FFFFFF" id="icon" transform="translate(182.000000, 150.000000)"><path d="M334.125214,16.5574012 L334.125214,12.9488585 L331.552316,12.9488585 L331.552316,16.5574012 L327.847341,16.5574012 L327.847341,19.1349317 L331.552316,19.1349317 L331.552316,22.8465756 L334.125214,22.8465756 L334.125214,19.1349317 L337.727273,19.1349317 L337.727273,16.5574012 L334.125214,16.5574012 Z M315.394511,16.3511988 L315.394511,20.4752475 C315.394511,20.4752475 319.388062,20.4698863 321.014134,20.4698863 C320.133585,23.143404 318.764391,24.5992963 315.394511,24.5992963 C311.984185,24.5992963 309.32247,21.8296882 309.32247,18.4132231 C309.32247,14.996758 311.984185,12.22715 315.394511,12.22715 C317.197599,12.22715 318.362093,12.8620473 319.430257,13.7469651 C320.285283,12.8904001 320.213859,12.7683283 322.389194,10.7103249 C320.542573,9.02647574 318.088233,8 315.394511,8 C309.653756,8 305,12.662134 305,18.4132231 C305,24.1642091 309.653756,28.8264463 315.394511,28.8264463 C323.975334,28.8264463 326.072659,21.3412978 325.377358,16.3511988 L315.394511,16.3511988 Z" id="google_plus"/></g></g></g></svg>